<svg 
 xmlns="http://www.w3.org/2000/svg"
 xmlns:xlink="http://www.w3.org/1999/xlink"
 width="20px" height="11px">
<path fill-rule="evenodd"  fill="rgb(255, 255, 255)"
 d="M9.315,10.852 L10.452,10.852 C10.452,10.852 10.795,10.815 10.971,10.625 C11.132,10.451 11.127,10.124 11.127,10.124 C11.127,10.124 11.105,8.593 11.813,8.367 C12.511,8.145 13.408,9.847 14.358,10.501 C15.076,10.995 15.622,10.887 15.622,10.887 L18.163,10.852 C18.163,10.852 19.492,10.769 18.862,9.721 C18.810,9.636 18.495,8.946 16.973,7.529 C15.379,6.045 15.593,6.285 17.512,3.719 C18.681,2.156 19.148,1.202 19.002,0.794 C18.863,0.405 18.003,0.508 18.003,0.508 L15.143,0.526 C15.143,0.526 14.930,0.496 14.773,0.591 C14.619,0.683 14.521,0.899 14.521,0.899 C14.521,0.899 14.068,2.108 13.464,3.135 C12.190,5.306 11.681,5.421 11.473,5.286 C10.988,4.972 11.109,4.024 11.109,3.351 C11.109,1.249 11.427,0.372 10.490,0.144 C10.180,0.069 9.950,0.019 9.155,0.011 C8.134,0.002 7.271,0.015 6.782,0.254 C6.456,0.415 6.205,0.772 6.358,0.791 C6.547,0.818 6.975,0.907 7.202,1.217 C7.495,1.618 7.485,2.516 7.485,2.516 C7.485,2.516 7.653,4.992 7.092,5.300 C6.706,5.510 6.177,5.079 5.042,3.112 C4.460,2.102 4.020,0.988 4.020,0.988 C4.020,0.988 3.936,0.779 3.785,0.668 C3.601,0.532 3.345,0.490 3.345,0.490 L0.627,0.508 C0.627,0.508 0.219,0.520 0.069,0.698 C-0.065,0.855 0.058,1.183 0.058,1.183 C0.058,1.183 2.186,6.178 4.596,8.695 C6.806,11.003 9.315,10.852 9.315,10.852 Z"/>
</svg>