<svg 
 xmlns="http://www.w3.org/2000/svg"
 xmlns:xlink="http://www.w3.org/1999/xlink"
 width="20px" height="20px">
<path fill-rule="evenodd"  fill="rgb(255, 255, 255)"
 d="M10.178,19.498 C8.553,19.498 6.948,19.098 5.528,18.339 L0.338,19.988 C0.313,19.997 0.286,20.000 0.260,20.000 C0.191,20.000 0.124,19.973 0.074,19.923 C0.006,19.853 -0.018,19.750 0.014,19.657 L1.701,14.680 C0.820,13.190 0.354,11.488 0.354,9.749 C0.354,4.374 4.761,-0.000 10.178,-0.000 C15.594,-0.000 20.000,4.374 20.000,9.749 C20.000,15.125 15.594,19.498 10.178,19.498 ZM10.178,2.030 C5.887,2.030 2.397,5.493 2.397,9.749 C2.397,11.385 2.909,12.950 3.878,14.274 C3.928,14.343 3.941,14.431 3.914,14.511 L3.075,16.987 L5.675,16.161 C5.700,16.153 5.727,16.149 5.753,16.149 C5.804,16.149 5.853,16.163 5.896,16.191 C7.168,17.026 8.649,17.467 10.178,17.467 C14.468,17.467 17.958,14.005 17.958,9.749 C17.958,5.493 14.468,2.030 10.178,2.030 ZM13.310,14.405 L13.238,14.412 C13.126,14.423 12.998,14.435 12.838,14.435 L12.838,14.435 C12.458,14.435 11.789,14.370 10.377,13.807 C8.910,13.221 7.463,11.964 6.303,10.269 C6.283,10.240 6.269,10.219 6.261,10.209 C5.958,9.810 5.253,8.760 5.253,7.647 C5.253,6.411 5.844,5.709 6.194,5.488 C6.524,5.281 7.269,5.182 7.406,5.176 C7.519,5.172 7.492,5.172 7.519,5.172 C7.808,5.172 8.016,5.347 8.173,5.724 C8.239,5.880 8.854,7.366 8.889,7.435 C8.931,7.517 9.061,7.772 8.909,8.075 L8.876,8.140 C8.813,8.267 8.760,8.376 8.639,8.517 C8.600,8.561 8.561,8.609 8.521,8.656 C8.438,8.756 8.352,8.860 8.273,8.938 C8.246,8.966 8.193,9.019 8.187,9.039 C8.187,9.039 8.188,9.058 8.212,9.097 C8.374,9.373 9.562,11.007 11.126,11.686 C11.194,11.715 11.420,11.809 11.433,11.809 C11.447,11.809 11.471,11.785 11.489,11.764 C11.626,11.610 12.067,11.095 12.212,10.878 C12.341,10.686 12.506,10.587 12.703,10.587 C12.824,10.587 12.937,10.625 13.043,10.662 C13.302,10.755 14.760,11.473 14.799,11.492 C14.990,11.584 15.141,11.656 15.228,11.801 C15.356,12.012 15.305,12.595 15.113,13.129 C14.870,13.807 13.797,14.362 13.310,14.405 Z"/>
</svg>