<svg 
 xmlns="http://www.w3.org/2000/svg"
 xmlns:xlink="http://www.w3.org/1999/xlink"
 width="18px" height="18px">
<path fill-rule="evenodd"  fill="rgb(255, 255, 255)"
 d="M12.375,17.998 L5.625,17.998 C2.519,17.998 -0.000,15.480 -0.000,12.374 L-0.000,5.623 C-0.000,2.518 2.519,-0.001 5.625,-0.001 L12.375,-0.001 C15.481,-0.001 18.000,2.518 18.000,5.623 L18.000,12.374 C18.000,15.480 15.481,17.998 12.375,17.998 ZM16.312,5.623 C16.312,3.452 14.546,1.686 12.375,1.686 L5.625,1.686 C3.454,1.686 1.687,3.452 1.687,5.623 L1.687,12.374 C1.687,14.544 3.454,16.312 5.625,16.312 L12.375,16.312 C14.546,16.312 16.312,14.544 16.312,12.374 L16.312,5.623 ZM13.837,4.761 C13.506,4.761 13.238,4.492 13.238,4.161 C13.238,3.830 13.506,3.561 13.837,3.561 C14.169,3.561 14.437,3.830 14.437,4.161 C14.437,4.492 14.169,4.761 13.837,4.761 ZM9.000,13.499 C6.515,13.499 4.500,11.484 4.500,8.998 C4.500,6.513 6.515,4.499 9.000,4.499 C11.485,4.499 13.500,6.513 13.500,8.998 C13.500,11.484 11.485,13.499 9.000,13.499 ZM9.000,6.186 C7.450,6.186 6.187,7.447 6.187,8.998 C6.187,10.549 7.450,11.811 9.000,11.811 C10.550,11.811 11.812,10.549 11.812,8.998 C11.812,7.447 10.550,6.186 9.000,6.186 Z"/>
</svg>