<svg 
 xmlns="http://www.w3.org/2000/svg"
 xmlns:xlink="http://www.w3.org/1999/xlink"
 width="33px" height="33px">
<path fill-rule="evenodd"  stroke="rgb(208, 209, 159)" stroke-width="2px" stroke-linecap="butt" stroke-linejoin="miter" fill="none"
 d="M16.000,0.999 C24.284,0.999 31.000,7.715 31.000,15.999 C31.000,24.284 24.284,31.000 16.000,31.000 C7.716,31.000 1.000,24.284 1.000,15.999 C1.000,7.715 7.716,0.999 16.000,0.999 Z"/>
<path fill-rule="evenodd"  fill="rgb(174, 217, 146)"
 d="M17.648,20.264 C17.167,19.807 16.773,19.288 16.476,18.727 C16.334,18.449 16.028,18.268 15.737,18.269 L14.173,18.054 C13.708,16.580 13.717,15.355 14.206,13.902 L15.733,13.711 C16.063,13.714 16.365,13.545 16.523,13.268 C16.830,12.706 17.233,12.193 17.721,11.743 C18.065,11.426 18.069,10.905 17.730,10.582 L16.294,9.217 C15.955,8.895 15.398,8.891 15.054,9.208 C11.035,12.915 10.987,18.994 14.946,22.758 C15.285,23.080 15.841,23.083 16.186,22.766 L17.639,21.425 C17.984,21.108 17.988,20.586 17.648,20.264 Z"/>
</svg>