<svg 
 xmlns="http://www.w3.org/2000/svg"
 xmlns:xlink="http://www.w3.org/1999/xlink"
 width="12px" height="7px">
<path fill-rule="evenodd"  fill="rgb(175, 175, 175)"
 d="M0.337,3.828 L10.843,3.828 L8.147,6.416 C8.014,6.546 8.014,6.758 8.147,6.887 C8.281,7.017 8.497,7.017 8.630,6.887 L11.908,3.731 C11.910,3.728 11.912,3.726 11.916,3.721 C11.922,3.714 11.929,3.708 11.934,3.699 C11.939,3.694 11.945,3.688 11.947,3.683 C11.953,3.674 11.958,3.667 11.963,3.659 C11.967,3.652 11.971,3.645 11.973,3.639 C11.976,3.633 11.979,3.628 11.981,3.623 C11.982,3.620 11.984,3.617 11.984,3.614 C11.987,3.608 11.989,3.599 11.992,3.593 C11.994,3.583 11.997,3.576 12.000,3.568 C12.000,3.560 12.002,3.553 12.002,3.545 C12.004,3.536 12.005,3.528 12.005,3.521 C12.007,3.512 12.007,3.504 12.007,3.495 C12.007,3.488 12.007,3.480 12.005,3.472 C12.005,3.464 12.004,3.455 12.002,3.445 C12.002,3.440 12.000,3.431 12.000,3.424 C11.997,3.415 11.994,3.407 11.992,3.398 C11.989,3.391 11.987,3.383 11.985,3.377 C11.984,3.374 11.982,3.371 11.981,3.369 C11.979,3.363 11.976,3.357 11.973,3.353 C11.969,3.346 11.967,3.340 11.963,3.333 C11.958,3.325 11.954,3.317 11.947,3.310 C11.945,3.303 11.939,3.298 11.934,3.292 C11.929,3.284 11.923,3.277 11.916,3.271 C11.913,3.268 11.910,3.264 11.908,3.259 L8.630,0.104 C8.563,0.039 8.475,0.006 8.388,0.006 C8.301,0.006 8.214,0.039 8.147,0.104 C8.014,0.233 8.014,0.444 8.147,0.575 L8.147,0.575 L10.843,3.162 L0.337,3.162 C0.149,3.162 -0.003,3.312 -0.003,3.495 C-0.003,3.679 0.149,3.828 0.337,3.828 Z"/>
</svg>