<svg 
 xmlns="http://www.w3.org/2000/svg"
 xmlns:xlink="http://www.w3.org/1999/xlink"
 width="12px" height="10px">
<path fill-rule="evenodd"  fill="rgb(255, 142, 143)"
 d="M3.631,9.841 C3.733,9.943 3.872,10.000 4.017,10.000 C4.161,10.000 4.300,9.943 4.402,9.841 L11.840,2.456 C11.942,2.355 12.000,2.217 12.000,2.073 C12.000,1.929 11.942,1.791 11.840,1.690 L10.297,0.158 C10.084,-0.054 9.738,-0.054 9.525,0.158 L4.017,5.628 L2.474,4.095 C2.371,3.994 2.232,3.937 2.088,3.937 C1.943,3.937 1.804,3.994 1.702,4.095 L0.159,5.628 C-0.054,5.839 -0.054,6.182 0.159,6.394 L3.631,9.841 Z"/>
</svg>