<svg 
 xmlns="http://www.w3.org/2000/svg"
 xmlns:xlink="http://www.w3.org/1999/xlink"
 width="28px" height="28px">
<path fill-rule="evenodd"  fill="rgb(255, 255, 255)"
 d="M23.625,28.000 C26.037,28.000 28.000,26.037 28.000,23.624 C28.000,23.021 27.510,22.531 26.906,22.531 C26.302,22.531 25.812,23.021 25.812,23.624 C25.812,24.831 24.831,25.812 23.625,25.812 L15.094,25.812 L15.094,15.148 L25.812,15.148 L25.812,18.156 C25.812,18.760 26.302,19.250 26.906,19.250 C27.510,19.250 28.000,18.760 28.000,18.156 L28.000,4.375 C28.000,1.963 26.037,-0.000 23.625,-0.000 L4.375,-0.000 C1.963,-0.000 -0.000,1.963 -0.000,4.375 L-0.000,4.375 L-0.000,23.624 L-0.000,23.624 C-0.000,26.037 1.963,28.000 4.375,28.000 L23.625,28.000 M2.187,4.375 C2.187,3.168 3.169,2.187 4.375,2.187 L12.906,2.187 L12.906,12.961 L2.187,12.961 L2.187,4.375 ZM12.906,25.812 L4.375,25.812 C3.169,25.812 2.187,24.831 2.187,23.624 L2.187,15.148 L12.906,15.148 L12.906,25.812 ZM15.094,12.961 L15.094,2.187 L23.625,2.187 C24.831,2.187 25.812,3.168 25.812,4.375 L25.812,12.961 L15.094,12.961 ZM10.719,7.547 C10.719,8.151 10.229,8.640 9.625,8.640 L8.641,8.640 L8.641,9.625 C8.641,10.229 8.151,10.719 7.547,10.719 C6.943,10.719 6.453,10.229 6.453,9.625 L6.453,8.640 L5.469,8.640 C4.865,8.640 4.375,8.151 4.375,7.547 C4.375,6.942 4.865,6.453 5.469,6.453 L6.453,6.453 L6.453,5.468 C6.453,4.865 6.943,4.375 7.547,4.375 C8.151,4.375 8.641,4.865 8.641,5.468 L8.641,6.453 L9.625,6.453 C10.229,6.453 10.719,6.942 10.719,7.547 ZM4.375,20.453 C4.375,19.849 4.865,19.359 5.469,19.359 L9.625,19.359 C10.229,19.359 10.719,19.849 10.719,20.453 C10.719,21.057 10.229,21.547 9.625,21.547 L5.469,21.547 C4.865,21.547 4.375,21.057 4.375,20.453 ZM6.453,17.719 L6.453,17.719 C6.453,17.115 6.943,16.625 7.547,16.625 C8.151,16.625 8.641,17.115 8.641,17.719 L8.641,17.719 C8.641,18.322 8.151,18.812 7.547,18.812 C6.943,18.812 6.453,18.322 6.453,17.719 ZM8.641,23.187 L8.641,23.187 C8.641,23.791 8.151,24.281 7.547,24.281 C6.943,24.281 6.453,23.791 6.453,23.187 L6.453,23.187 C6.453,22.583 6.943,22.093 7.547,22.093 C8.151,22.093 8.641,22.583 8.641,23.187 ZM22.838,19.622 L21.998,20.462 L22.838,21.301 C23.265,21.729 23.265,22.421 22.838,22.848 C22.624,23.061 22.344,23.168 22.064,23.168 C21.784,23.168 21.504,23.061 21.291,22.848 L20.451,22.008 L19.611,22.848 C19.397,23.061 19.118,23.168 18.838,23.168 C18.558,23.168 18.278,23.061 18.064,22.848 C17.637,22.421 17.637,21.729 18.064,21.301 L18.904,20.462 L18.064,19.622 C17.637,19.195 17.637,18.502 18.064,18.075 C18.491,17.648 19.184,17.648 19.611,18.075 L20.451,18.915 L21.291,18.075 C21.718,17.648 22.410,17.648 22.838,18.075 C23.265,18.502 23.265,19.195 22.838,19.622 ZM23.625,7.547 C23.625,8.151 23.135,8.640 22.531,8.640 L18.375,8.640 C17.771,8.640 17.281,8.151 17.281,7.547 C17.281,6.942 17.771,6.453 18.375,6.453 L22.531,6.453 C23.135,6.453 23.625,6.942 23.625,7.547 Z"/>
</svg>