<svg width="13" height="12" xmlns="http://www.w3.org/2000/svg">

 <g>
  <title>background</title>
  <rect fill="none" id="canvas_background" height="14" width="15" y="-1" x="-1"/>
 </g>
 <g>
  <title>Layer 1</title>
  <path id="svg_1" d="m4.076194,10.841c0.102,0.101 0.241,0.158 0.385,0.158c0.145,0 0.284,-0.057 0.386,-0.158l7.438,-7.385c0.102,-0.102 0.16,-0.24 0.16,-0.383c0,-0.144 -0.058,-0.282 -0.16,-0.384l-1.543,-1.532c-0.213,-0.211 -0.559,-0.211 -0.772,0l-5.509,5.47l-1.543,-1.532c-0.102,-0.102 -0.241,-0.159 -0.385,-0.159c-0.145,0 -0.284,0.057 -0.386,0.159l-1.543,1.532c-0.213,0.212 -0.213,0.554 0,0.766l3.472,3.448z" fill="rgb(255, 255, 255)" fill-rule="evenodd"/>
 </g>
</svg>