<svg 
 xmlns="http://www.w3.org/2000/svg"
 xmlns:xlink="http://www.w3.org/1999/xlink"
 width="28px" height="28px">
<path fill-rule="evenodd"  fill="rgb(255, 255, 255)"
 d="M27.918,19.773 C27.852,21.261 27.612,22.278 27.267,23.170 C26.539,25.052 25.051,26.539 23.169,27.267 C22.283,27.611 21.260,27.852 19.772,27.917 C18.278,27.984 17.802,28.000 14.000,28.000 C10.198,28.000 9.721,27.984 8.228,27.917 C6.740,27.852 5.722,27.611 4.830,27.267 C3.900,26.917 3.052,26.364 2.352,25.653 C1.641,24.953 1.088,24.111 0.733,23.170 C0.388,22.283 0.147,21.261 0.082,19.773 C0.016,18.280 -0.000,17.804 -0.000,14.002 C-0.000,10.201 0.016,9.725 0.087,8.226 C0.153,6.739 0.393,5.721 0.738,4.829 C1.088,3.900 1.641,3.052 2.352,2.352 C3.052,1.635 3.895,1.088 4.836,0.733 C5.722,0.388 6.745,0.147 8.233,0.081 C9.727,0.016 10.203,-0.000 14.005,-0.000 C17.807,-0.000 18.283,0.016 19.783,0.087 C21.271,0.153 22.288,0.394 23.180,0.738 C24.110,1.088 24.958,1.640 25.658,2.352 C26.375,3.052 26.922,3.894 27.278,4.835 C27.623,5.721 27.863,6.744 27.929,8.232 C27.994,9.725 28.000,10.201 28.000,14.002 C28.000,17.804 27.984,18.280 27.918,19.773 ZM25.407,8.357 C25.347,6.995 25.117,6.252 24.925,5.759 C24.701,5.152 24.345,4.605 23.880,4.151 C23.432,3.686 22.879,3.331 22.272,3.106 C21.780,2.915 21.041,2.685 19.673,2.625 C18.201,2.560 17.758,2.543 14.016,2.543 C10.280,2.543 9.836,2.560 8.359,2.625 C6.997,2.685 6.253,2.915 5.760,3.106 C5.153,3.331 4.606,3.686 4.152,4.151 C3.682,4.600 3.326,5.152 3.101,5.759 C2.910,6.252 2.680,6.990 2.620,8.357 C2.555,9.829 2.538,10.277 2.538,14.014 C2.538,17.749 2.555,18.193 2.620,19.669 C2.680,21.031 2.910,21.775 3.101,22.268 C3.326,22.875 3.682,23.421 4.147,23.876 C4.595,24.341 5.148,24.696 5.755,24.920 C6.247,25.112 6.986,25.341 8.354,25.402 C9.826,25.467 10.274,25.483 14.011,25.483 C17.747,25.483 18.190,25.467 19.668,25.402 C21.030,25.341 21.774,25.112 22.267,24.920 C23.487,24.450 24.455,23.482 24.925,22.262 C25.117,21.770 25.347,21.031 25.407,19.664 C25.472,18.187 25.489,17.749 25.489,14.014 C25.489,10.277 25.472,9.834 25.407,8.357 ZM21.484,8.204 C20.557,8.204 19.804,7.453 19.804,6.525 C19.804,5.598 20.557,4.846 21.484,4.846 C22.412,4.846 23.164,5.598 23.164,6.525 C23.164,7.453 22.412,8.204 21.484,8.204 ZM14.005,21.196 C10.033,21.196 6.811,17.974 6.811,14.002 C6.811,10.031 10.033,6.810 14.005,6.810 C17.977,6.810 21.199,10.031 21.199,14.002 C21.199,17.974 17.977,21.196 14.005,21.196 ZM14.005,9.337 C11.429,9.337 9.338,11.426 9.338,14.002 C9.338,16.579 11.429,18.668 14.005,18.668 C16.582,18.668 18.672,16.579 18.672,14.002 C18.672,11.426 16.582,9.337 14.005,9.337 Z"/>
</svg>