<svg 
 xmlns="http://www.w3.org/2000/svg"
 xmlns:xlink="http://www.w3.org/1999/xlink"
 width="204px" height="67px">
<path fill-rule="evenodd"  fill="rgb(115, 176, 81)"
 d="M201.895,10.551 C201.583,10.935 201.427,11.341 201.427,11.770 L201.427,24.876 C201.427,25.304 201.583,25.692 201.895,26.040 C202.206,26.387 202.527,26.628 202.858,26.765 C202.939,26.811 203.013,26.880 203.077,26.970 C203.178,27.145 203.119,27.231 202.899,27.231 L197.013,27.231 C196.802,27.231 196.733,27.157 196.806,27.012 C196.843,26.911 196.926,26.829 197.054,26.765 C197.376,26.628 197.684,26.387 197.982,26.040 C198.280,25.692 198.429,25.304 198.429,24.876 L198.429,13.126 L191.278,24.451 C190.939,24.990 190.916,25.464 191.210,25.875 C191.466,26.277 191.824,26.573 192.283,26.765 C192.373,26.811 192.447,26.880 192.502,26.970 C192.603,27.145 192.548,27.231 192.338,27.231 L186.438,27.231 C186.227,27.231 186.158,27.157 186.231,27.012 C186.286,26.911 186.369,26.829 186.479,26.765 C186.800,26.628 187.109,26.387 187.407,26.040 C187.705,25.692 187.854,25.304 187.854,24.876 L187.854,11.770 C187.854,11.341 187.705,10.935 187.407,10.551 C187.109,10.168 186.800,9.908 186.479,9.771 C186.277,9.689 186.190,9.561 186.218,9.387 C186.227,9.297 186.300,9.250 186.438,9.250 L192.338,9.250 C192.465,9.250 192.539,9.297 192.557,9.387 C192.575,9.551 192.484,9.679 192.283,9.771 C191.952,9.908 191.634,10.168 191.327,10.551 C191.019,10.935 190.866,11.341 190.866,11.770 L190.866,22.808 C190.866,22.862 190.903,22.918 190.976,22.973 C191.049,23.027 191.099,23.027 191.127,22.973 L198.003,12.057 C198.168,11.775 198.245,11.482 198.236,11.181 C198.210,10.916 198.104,10.661 197.920,10.414 C197.701,10.150 197.412,9.935 197.054,9.771 C196.843,9.679 196.756,9.551 196.793,9.387 C196.793,9.297 196.866,9.250 197.013,9.250 L202.899,9.250 C203.027,9.250 203.101,9.297 203.119,9.387 C203.128,9.551 203.040,9.679 202.858,9.771 C202.527,9.908 202.206,10.168 201.895,10.551 ZM197.295,7.621 C196.319,7.959 195.284,8.109 194.194,8.073 C193.231,8.045 192.358,7.867 191.574,7.539 C190.790,7.209 190.352,6.726 190.261,6.087 C190.178,5.785 190.171,5.487 190.240,5.190 C190.309,4.894 190.399,4.648 190.508,4.457 C190.976,3.609 191.535,3.357 192.186,3.704 C192.626,3.942 192.842,4.288 192.832,4.745 C192.814,5.009 192.737,5.231 192.599,5.409 C192.461,5.587 192.342,5.745 192.241,5.882 C192.048,6.165 191.989,6.411 192.062,6.621 C192.145,6.922 192.410,7.153 192.860,7.312 C193.309,7.473 193.809,7.566 194.358,7.593 C194.973,7.621 195.562,7.562 196.126,7.415 C196.690,7.269 197.036,7.031 197.164,6.703 C197.265,6.466 197.210,6.191 196.999,5.882 C196.889,5.745 196.763,5.587 196.621,5.409 C196.479,5.231 196.407,5.009 196.407,4.745 C196.389,4.288 196.600,3.942 197.041,3.704 C197.701,3.367 198.264,3.618 198.732,4.457 C198.824,4.648 198.903,4.894 198.973,5.190 C199.041,5.487 199.039,5.785 198.966,6.087 C198.828,6.772 198.271,7.283 197.295,7.621 ZM183.316,26.040 C183.627,26.387 183.949,26.628 184.279,26.765 C184.361,26.811 184.434,26.880 184.498,26.970 C184.599,27.145 184.540,27.231 184.320,27.231 L178.434,27.231 C178.223,27.231 178.154,27.157 178.227,27.012 C178.292,26.902 178.374,26.820 178.475,26.765 C178.796,26.628 179.106,26.387 179.403,26.040 C179.701,25.692 179.850,25.304 179.850,24.876 L179.850,13.126 L172.700,24.451 C172.361,24.990 172.337,25.464 172.631,25.875 C172.906,26.286 173.263,26.583 173.704,26.765 C173.786,26.811 173.864,26.880 173.937,26.970 C174.020,27.145 173.960,27.231 173.759,27.231 L167.859,27.231 C167.648,27.231 167.579,27.157 167.652,27.012 C167.707,26.911 167.790,26.829 167.900,26.765 C168.231,26.628 168.542,26.387 168.836,26.040 C169.129,25.692 169.275,25.304 169.275,24.876 L169.275,11.770 C169.275,11.341 169.129,10.935 168.836,10.551 C168.542,10.168 168.231,9.908 167.900,9.771 C167.707,9.679 167.621,9.551 167.639,9.387 C167.648,9.297 167.722,9.250 167.859,9.250 L173.759,9.250 C173.886,9.250 173.960,9.297 173.978,9.387 C173.997,9.551 173.905,9.679 173.704,9.771 C173.373,9.908 173.052,10.168 172.741,10.551 C172.429,10.935 172.274,11.341 172.274,11.770 L172.274,22.808 C172.274,22.862 172.313,22.918 172.390,22.973 C172.468,23.027 172.521,23.027 172.548,22.973 L179.424,12.057 C179.607,11.775 179.686,11.482 179.658,11.181 C179.631,10.916 179.525,10.661 179.342,10.414 C179.122,10.150 178.833,9.935 178.475,9.771 C178.264,9.679 178.177,9.551 178.214,9.387 C178.214,9.297 178.288,9.250 178.434,9.250 L184.320,9.250 C184.467,9.250 184.540,9.297 184.540,9.387 C184.549,9.551 184.461,9.679 184.279,9.771 C183.949,9.908 183.627,10.168 183.316,10.551 C183.004,10.935 182.849,11.341 182.849,11.770 L182.849,24.876 C182.849,25.304 183.004,25.692 183.316,26.040 ZM169.076,34.475 C168.953,34.530 168.790,34.543 168.589,34.516 C167.167,34.352 165.970,33.912 164.999,33.195 C164.027,32.478 163.294,31.736 162.798,30.970 C162.313,30.239 161.882,29.307 161.506,28.176 C161.286,27.556 161.094,26.929 160.929,26.300 C160.763,25.670 160.598,25.062 160.433,24.478 C160.214,23.739 160.016,23.029 159.842,22.348 C159.668,21.669 159.392,21.110 159.017,20.672 C158.558,20.151 158.104,19.822 157.655,19.686 C156.849,19.959 156.042,20.165 155.235,20.302 L155.235,24.876 C155.235,25.304 155.391,25.692 155.703,26.040 C156.014,26.387 156.336,26.628 156.665,26.765 C156.757,26.811 156.830,26.880 156.886,26.970 C156.986,27.145 156.931,27.231 156.720,27.231 L150.821,27.231 C150.610,27.231 150.541,27.157 150.615,27.012 C150.670,26.911 150.752,26.829 150.862,26.765 C151.192,26.628 151.504,26.387 151.797,26.040 C152.091,25.692 152.238,25.304 152.238,24.876 L152.238,11.770 C152.238,11.341 152.091,10.935 151.797,10.551 C151.504,10.168 151.192,9.908 150.862,9.771 C150.670,9.679 150.582,9.551 150.601,9.387 C150.610,9.297 150.683,9.250 150.821,9.250 L156.720,9.250 C156.849,9.250 156.922,9.297 156.940,9.387 C156.959,9.551 156.867,9.679 156.665,9.771 C156.336,9.908 156.014,10.168 155.703,10.551 C155.391,10.935 155.235,11.341 155.235,11.770 L155.235,19.535 C156.042,19.444 156.845,19.284 157.642,19.055 C158.440,18.827 159.200,18.489 159.925,18.042 C160.309,17.805 160.708,17.501 161.121,17.131 C161.534,16.762 161.855,16.331 162.083,15.837 C162.405,15.152 162.482,14.504 162.318,13.893 C162.189,13.464 162.001,13.048 161.754,12.647 C161.506,12.245 161.364,11.898 161.327,11.606 C161.291,11.396 161.258,11.131 161.230,10.811 C161.203,10.492 161.226,10.222 161.300,10.004 C161.639,9.036 162.294,8.575 163.266,8.620 C163.871,8.666 164.380,8.977 164.792,9.551 C165.251,10.209 165.398,11.006 165.233,11.941 C165.068,12.877 164.834,13.669 164.531,14.317 C164.156,15.093 163.676,15.812 163.094,16.474 C162.512,17.136 161.942,17.645 161.383,18.001 C160.850,18.339 160.269,18.649 159.635,18.932 C160.048,19.078 160.424,19.334 160.763,19.699 C161.102,20.064 161.473,20.480 161.877,20.945 C162.436,21.612 162.913,22.422 163.307,23.376 C163.702,24.330 164.082,25.327 164.449,26.367 C164.779,27.281 165.102,28.228 165.419,29.210 C165.735,30.191 166.172,31.097 166.731,31.928 C167.373,32.905 168.153,33.685 169.069,34.270 C169.198,34.352 169.200,34.421 169.076,34.475 ZM146.007,26.662 C144.954,27.242 143.789,27.531 142.515,27.531 C140.251,27.531 138.373,26.544 136.884,24.567 C135.394,22.590 134.690,20.311 134.772,17.727 C134.846,15.152 135.649,13.032 137.180,11.366 C138.710,9.700 140.613,8.867 142.886,8.867 C143.858,8.867 144.708,9.191 145.437,9.839 C146.167,10.488 146.558,11.205 146.613,11.989 C146.659,12.802 146.480,13.377 146.077,13.715 C145.673,14.052 145.169,14.208 144.564,14.181 C143.180,14.134 142.501,13.277 142.528,11.606 C142.537,10.966 142.075,10.556 141.140,10.374 C140.287,10.227 139.512,10.483 138.816,11.141 C137.606,12.245 137.058,14.048 137.172,16.550 C137.287,19.051 138.064,21.036 139.503,22.506 C140.933,23.986 142.419,24.770 143.959,24.861 C145.499,24.953 147.053,24.515 148.621,23.547 C149.052,23.273 149.267,23.327 149.267,23.712 C149.276,23.930 149.185,24.146 148.992,24.355 C148.057,25.313 147.062,26.083 146.007,26.662 ZM127.595,17.562 C128.648,17.782 129.570,18.134 130.359,18.617 C130.927,18.973 131.449,19.414 131.927,19.938 C132.403,20.463 132.733,20.999 132.916,21.548 C133.090,22.105 133.182,22.701 133.191,23.335 C133.201,23.969 133.040,24.579 132.710,25.163 C132.215,26.040 131.353,26.637 130.124,26.957 C129.483,27.122 128.819,27.213 128.130,27.231 C127.443,27.250 126.856,27.258 126.371,27.258 L118.340,27.231 C118.110,27.231 118.046,27.154 118.147,26.998 C118.193,26.880 118.275,26.797 118.395,26.752 C118.706,26.615 119.014,26.373 119.316,26.026 C119.619,25.679 119.770,25.291 119.770,24.861 L119.770,12.811 C119.770,12.382 119.619,11.975 119.316,11.592 C119.014,11.208 118.706,10.944 118.395,10.798 C118.183,10.725 118.092,10.602 118.119,10.428 C118.147,10.254 118.220,10.168 118.340,10.168 L120.512,9.784 C121.181,9.666 121.716,9.543 122.114,9.415 C122.513,9.287 122.997,9.159 123.565,9.032 C124.684,8.821 125.944,8.753 127.347,8.826 C128.410,8.890 129.332,9.086 130.111,9.415 C130.679,9.661 131.202,9.985 131.679,10.387 C132.155,10.788 132.486,11.222 132.669,11.687 C133.090,12.811 132.999,13.897 132.394,14.947 C131.944,15.714 131.082,16.325 129.808,16.782 C129.369,16.947 128.924,17.083 128.474,17.193 C128.025,17.302 127.595,17.399 127.182,17.480 C127.246,17.499 127.312,17.515 127.382,17.528 C127.450,17.542 127.521,17.553 127.595,17.562 ZM127.443,16.234 C128.121,15.823 128.598,15.203 128.873,14.373 C129.102,13.651 129.150,12.927 129.018,12.202 C128.885,11.475 128.525,10.880 127.939,10.414 C127.406,10.004 126.776,9.780 126.048,9.743 C125.318,9.708 124.638,9.729 124.006,9.812 C123.703,9.921 123.421,10.010 123.160,10.079 C122.898,10.147 122.767,10.374 122.767,10.757 L122.767,17.179 C123.153,17.179 123.531,17.173 123.903,17.158 C124.274,17.146 124.647,17.111 125.022,17.055 C125.939,16.928 126.746,16.654 127.443,16.234 ZM126.274,18.151 C125.733,17.987 125.151,17.903 124.528,17.898 C123.905,17.894 123.318,17.928 122.767,18.001 L122.767,24.615 C122.767,25.300 123.010,25.856 123.497,26.286 C123.835,26.341 124.179,26.393 124.528,26.444 C124.876,26.493 125.224,26.510 125.573,26.492 C126.206,26.464 126.822,26.336 127.422,26.108 C128.023,25.881 128.511,25.487 128.887,24.931 C129.446,24.082 129.657,23.146 129.519,22.123 C129.382,21.100 128.983,20.220 128.323,19.480 C127.737,18.842 127.053,18.398 126.274,18.151 ZM108.287,27.601 C106.022,27.601 104.072,26.686 102.436,24.855 C100.799,23.024 100.023,20.821 100.105,18.248 C100.169,15.673 101.033,13.469 102.697,11.633 C104.361,9.799 106.329,8.880 108.604,8.880 C109.869,8.880 111.095,9.164 112.282,9.729 C113.469,10.296 114.443,11.099 115.204,12.140 C115.791,12.952 116.208,13.893 116.456,14.961 C116.703,16.029 116.814,17.124 116.786,18.248 C116.713,20.821 115.844,23.024 114.180,24.855 C112.516,26.686 110.551,27.601 108.287,27.601 ZM115.274,19.158 C115.081,17.328 114.269,15.673 112.839,14.194 C111.400,12.733 109.731,11.862 107.834,11.578 C105.936,11.296 104.390,11.706 103.199,12.811 C101.998,13.915 101.508,15.333 101.727,17.063 C101.948,18.793 102.777,20.393 104.217,21.863 C105.647,23.332 107.297,24.261 109.167,24.649 C111.038,25.037 112.573,24.675 113.774,23.561 C114.965,22.456 115.465,20.988 115.274,19.158 ZM98.208,27.231 L92.322,27.231 C92.120,27.231 92.047,27.149 92.101,26.984 C92.147,26.884 92.225,26.806 92.336,26.752 C92.647,26.615 92.941,26.373 93.215,26.026 C93.491,25.679 93.614,25.291 93.587,24.861 L93.119,17.946 L86.051,17.946 L85.831,24.861 C85.812,25.291 85.945,25.679 86.229,26.026 C86.514,26.373 86.816,26.615 87.137,26.752 C87.247,26.797 87.330,26.874 87.385,26.984 C87.440,27.149 87.371,27.231 87.179,27.231 L81.279,27.231 C81.022,27.231 80.967,27.140 81.114,26.957 C81.178,26.865 81.256,26.797 81.348,26.752 C81.669,26.615 81.991,26.373 82.317,26.026 C82.643,25.679 82.815,25.291 82.833,24.861 L83.259,11.743 C83.269,11.323 83.122,10.920 82.819,10.538 C82.517,10.154 82.209,9.890 81.898,9.743 C81.705,9.661 81.618,9.534 81.637,9.359 C81.646,9.278 81.719,9.237 81.856,9.237 L87.756,9.237 C87.884,9.237 87.958,9.278 87.976,9.359 C87.985,9.534 87.889,9.661 87.687,9.743 C87.357,9.890 87.039,10.154 86.731,10.538 C86.424,10.920 86.266,11.323 86.257,11.743 L86.079,17.043 L93.051,17.043 L92.693,11.743 C92.666,11.323 92.491,10.920 92.170,10.538 C91.850,10.154 91.524,9.890 91.194,9.743 C90.992,9.661 90.891,9.534 90.891,9.359 C90.900,9.278 90.974,9.237 91.112,9.237 L96.997,9.237 C97.135,9.237 97.213,9.278 97.231,9.359 C97.258,9.534 97.176,9.661 96.984,9.743 C96.671,9.890 96.372,10.154 96.083,10.538 C95.794,10.920 95.663,11.323 95.691,11.743 L96.571,24.861 C96.599,25.291 96.782,25.679 97.121,26.026 C97.460,26.373 97.795,26.615 98.125,26.752 C98.225,26.797 98.308,26.865 98.372,26.957 C98.492,27.140 98.437,27.231 98.208,27.231 ZM79.285,27.204 L75.269,27.204 C74.967,27.204 74.815,27.012 74.815,26.628 L74.815,25.026 L70.291,27.601 C69.887,27.820 69.519,27.891 69.184,27.813 C68.849,27.735 68.572,27.651 68.352,27.560 C67.298,27.112 66.463,26.596 65.849,26.013 C65.024,25.227 64.460,24.309 64.158,23.260 C63.855,22.209 63.681,21.137 63.636,20.042 C63.571,18.745 63.704,17.535 64.034,16.412 C64.355,15.353 64.909,14.253 65.698,13.113 C66.284,12.273 67.050,11.478 67.994,10.729 C68.600,10.273 69.365,9.872 70.291,9.524 C70.777,9.342 71.286,9.244 71.818,9.230 C72.349,9.216 72.877,9.210 73.399,9.210 L77.456,9.210 C77.694,9.210 77.813,9.346 77.813,9.619 L77.813,24.834 C77.813,25.263 77.969,25.652 78.281,25.998 C78.592,26.345 78.913,26.587 79.244,26.724 C79.326,26.770 79.399,26.839 79.463,26.929 C79.574,27.112 79.514,27.204 79.285,27.204 ZM74.815,11.729 C74.513,10.980 73.798,10.529 72.670,10.374 C71.075,10.163 69.755,10.629 68.710,11.770 C67.948,12.591 67.415,13.500 67.108,14.495 C66.800,15.490 66.642,16.531 66.633,17.618 C66.615,18.869 66.766,19.987 67.087,20.972 C67.344,21.794 67.749,22.552 68.304,23.246 C68.859,23.940 69.548,24.442 70.373,24.753 C71.061,25.017 71.680,25.128 72.230,25.088 C72.780,25.046 73.311,24.921 73.825,24.711 C73.990,24.647 74.153,24.572 74.314,24.486 C74.474,24.398 74.641,24.309 74.815,24.218 L74.815,11.729 ZM61.586,27.217 L55.687,27.217 C55.476,27.217 55.398,27.140 55.453,26.984 C55.480,26.893 55.545,26.811 55.646,26.738 C55.948,26.601 56.214,26.359 56.443,26.013 C56.672,25.664 56.750,25.278 56.677,24.848 L54.366,12.112 L50.255,27.012 C50.209,27.157 50.113,27.231 49.966,27.231 C49.829,27.231 49.737,27.149 49.691,26.984 L45.400,12.140 L43.173,23.163 C42.980,24.076 42.957,24.746 43.104,25.170 C43.250,25.594 43.782,26.135 44.699,26.792 C44.790,26.839 44.845,26.889 44.864,26.943 C44.937,27.126 44.859,27.217 44.630,27.217 L39.955,27.217 C39.744,27.217 39.694,27.140 39.803,26.984 C39.877,26.874 39.978,26.792 40.106,26.738 C40.958,26.072 41.463,25.544 41.619,25.156 C41.774,24.768 41.949,24.086 42.141,23.109 L44.452,11.729 C44.534,11.300 44.401,10.896 44.053,10.517 C43.704,10.138 43.379,9.876 43.076,9.729 C42.884,9.656 42.820,9.534 42.884,9.359 C42.911,9.269 42.994,9.223 43.131,9.223 L49.031,9.223 C49.159,9.223 49.242,9.269 49.278,9.359 C49.352,9.534 49.301,9.656 49.127,9.729 C48.843,9.876 48.600,10.140 48.398,10.524 C48.197,10.908 48.160,11.309 48.288,11.729 L50.887,20.767 C50.897,20.813 50.940,20.838 51.018,20.843 C51.096,20.848 51.144,20.826 51.162,20.781 L53.693,11.606 C53.803,11.177 53.812,10.882 53.720,10.723 C53.629,10.563 53.418,10.332 53.087,10.031 C52.941,9.912 52.762,9.812 52.551,9.729 C52.331,9.656 52.222,9.534 52.222,9.359 C52.203,9.269 52.267,9.223 52.414,9.223 L58.313,9.223 C58.451,9.223 58.528,9.269 58.547,9.359 C58.602,9.534 58.538,9.656 58.355,9.729 C58.052,9.876 57.779,10.140 57.536,10.524 C57.293,10.908 57.213,11.309 57.296,11.729 L59.675,24.848 C59.757,25.278 59.984,25.664 60.355,26.013 C60.726,26.359 61.091,26.601 61.449,26.738 C61.540,26.784 61.628,26.853 61.710,26.943 C61.857,27.126 61.815,27.217 61.586,27.217 ZM29.778,27.601 C27.514,27.601 25.564,26.686 23.927,24.855 C22.291,23.024 21.514,20.821 21.596,18.248 C21.661,15.673 22.524,13.469 24.189,11.633 C25.853,9.799 27.821,8.880 30.095,8.880 C31.360,8.880 32.586,9.164 33.774,9.729 C34.961,10.296 35.935,11.099 36.696,12.140 C37.282,12.952 37.700,13.893 37.947,14.961 C38.195,16.029 38.305,17.124 38.277,18.248 C38.204,20.821 37.335,23.024 35.671,24.855 C34.007,26.686 32.043,27.601 29.778,27.601 ZM36.765,19.158 C36.572,17.328 35.761,15.673 34.331,14.194 C32.891,12.733 31.223,11.862 29.325,11.578 C27.427,11.296 25.882,11.706 24.690,12.811 C23.489,13.915 22.999,15.333 23.219,17.063 C23.439,18.793 24.269,20.393 25.708,21.863 C27.138,23.332 28.789,24.261 30.659,24.649 C32.529,25.037 34.064,24.675 35.265,23.561 C36.457,22.456 36.957,20.988 36.765,19.158 ZM13.648,13.044 C13.015,13.254 12.351,13.596 11.654,14.071 C10.957,14.546 10.407,15.102 10.004,15.742 C9.765,16.116 9.623,16.483 9.577,16.844 C9.531,17.205 9.509,17.508 9.509,17.754 C9.490,18.229 9.632,18.602 9.935,18.871 C10.237,19.140 10.549,19.402 10.870,19.658 C11.108,19.850 11.338,19.989 11.558,20.075 C11.778,20.163 11.989,20.329 12.190,20.575 C12.410,20.868 12.520,21.219 12.520,21.630 C12.520,21.995 12.387,22.337 12.122,22.657 C11.855,22.976 11.539,23.136 11.173,23.136 C10.521,23.136 9.985,22.840 9.564,22.246 C9.252,21.817 8.990,21.448 8.780,21.137 C8.569,20.826 8.413,20.453 8.312,20.014 C7.909,18.452 8.092,16.856 8.862,15.221 C9.146,14.563 9.541,13.943 10.045,13.358 C10.513,12.820 11.076,12.285 11.737,11.757 C12.525,11.127 13.208,10.410 13.785,9.607 C14.363,8.803 14.693,7.853 14.776,6.758 C14.812,6.037 14.673,5.300 14.356,4.546 C14.040,3.793 13.533,3.143 12.837,2.595 C11.745,1.755 10.507,1.290 9.124,1.199 C8.574,1.226 7.978,1.269 7.336,1.328 C6.694,1.387 6.309,1.509 6.181,1.691 C6.006,1.947 5.919,2.476 5.919,3.279 L5.919,24.409 C5.919,25.049 6.128,25.538 6.545,25.875 C6.962,26.213 7.377,26.487 7.790,26.697 C8.028,26.825 8.147,26.911 8.147,26.957 C8.147,27.112 8.051,27.190 7.859,27.190 L0.281,27.190 C0.089,27.190 -0.007,27.112 -0.007,26.957 C-0.017,26.911 0.102,26.825 0.350,26.697 C0.763,26.487 1.177,26.213 1.595,25.875 C2.012,25.538 2.220,25.049 2.220,24.409 L2.220,5.621 C2.220,4.991 2.032,4.391 1.656,3.821 C1.280,3.250 0.886,2.855 0.474,2.636 C0.235,2.518 0.116,2.430 0.116,2.376 C0.125,2.221 0.222,2.143 0.405,2.143 C2.028,1.641 3.568,1.177 5.026,0.753 C6.483,0.328 8.298,0.080 10.471,0.007 C12.122,0.007 13.577,0.175 14.837,0.513 C16.098,0.851 17.127,1.499 17.925,2.458 C18.731,3.471 19.222,4.503 19.396,5.553 C19.744,7.634 18.979,9.515 17.100,11.195 C16.284,11.925 15.133,12.541 13.648,13.044 Z"/>
<path fill-rule="evenodd"  fill="rgb(115, 176, 81)"
 d="M157.883,45.751 C157.553,45.890 157.233,46.153 156.922,46.541 C156.610,46.928 156.454,47.339 156.454,47.773 L156.454,61.021 C156.454,61.455 156.610,61.847 156.922,62.198 C157.233,62.548 157.553,62.792 157.883,62.931 C157.965,62.977 158.038,63.047 158.102,63.138 C158.203,63.314 158.144,63.402 157.924,63.402 L152.047,63.402 C151.836,63.402 151.767,63.328 151.840,63.181 C151.877,63.079 151.959,62.996 152.087,62.931 C152.408,62.792 152.717,62.548 153.014,62.198 C153.312,61.847 153.460,61.455 153.460,61.021 L153.460,49.143 L146.319,60.592 C145.981,61.136 145.957,61.616 146.251,62.032 C146.506,62.437 146.864,62.737 147.322,62.931 C147.413,62.977 147.486,63.047 147.541,63.138 C147.642,63.314 147.587,63.402 147.377,63.402 L141.486,63.402 C141.275,63.402 141.206,63.328 141.279,63.181 C141.334,63.079 141.416,62.996 141.526,62.931 C141.847,62.792 142.156,62.548 142.453,62.198 C142.751,61.847 142.899,61.455 142.899,61.021 L142.899,47.773 C142.899,47.339 142.751,46.928 142.453,46.541 C142.156,46.153 141.847,45.890 141.526,45.751 C141.325,45.668 141.238,45.539 141.266,45.364 C141.275,45.271 141.348,45.225 141.486,45.225 L147.377,45.225 C147.505,45.225 147.578,45.271 147.596,45.364 C147.615,45.530 147.523,45.660 147.322,45.751 C146.992,45.890 146.675,46.153 146.368,46.541 C146.060,46.928 145.908,47.339 145.908,47.773 L145.908,58.931 C145.908,58.986 145.944,59.041 146.018,59.097 C146.091,59.152 146.141,59.152 146.168,59.097 L153.035,48.063 C153.200,47.777 153.277,47.482 153.268,47.177 C153.241,46.910 153.136,46.651 152.952,46.402 C152.733,46.134 152.445,45.917 152.087,45.751 C151.877,45.660 151.790,45.530 151.827,45.364 C151.827,45.271 151.900,45.225 152.047,45.225 L157.924,45.225 C158.052,45.225 158.126,45.271 158.144,45.364 C158.153,45.530 158.066,45.660 157.883,45.751 ZM152.328,43.578 C151.353,43.919 150.320,44.073 149.231,44.034 C148.270,44.008 147.398,43.827 146.614,43.495 C145.832,43.163 145.394,42.674 145.304,42.028 C145.221,41.723 145.214,41.421 145.282,41.121 C145.351,40.821 145.441,40.574 145.550,40.380 C146.018,39.521 146.576,39.268 147.226,39.619 C147.666,39.859 147.881,40.209 147.871,40.671 C147.853,40.939 147.776,41.162 147.638,41.342 C147.501,41.522 147.381,41.681 147.281,41.820 C147.088,42.106 147.029,42.355 147.102,42.567 C147.185,42.872 147.450,43.105 147.899,43.266 C148.347,43.428 148.846,43.522 149.395,43.551 C150.009,43.578 150.597,43.517 151.160,43.370 C151.724,43.223 152.069,42.983 152.197,42.650 C152.298,42.410 152.243,42.133 152.032,41.820 C151.922,41.681 151.797,41.522 151.655,41.342 C151.513,41.162 151.442,40.939 151.442,40.671 C151.423,40.209 151.634,39.859 152.074,39.619 C152.733,39.277 153.296,39.531 153.763,40.380 C153.855,40.574 153.934,40.821 154.003,41.121 C154.072,41.421 154.070,41.723 153.996,42.028 C153.859,42.720 153.303,43.236 152.328,43.578 ZM138.368,46.541 C138.056,46.928 137.901,47.339 137.901,47.773 L137.901,61.021 C137.901,61.455 138.056,61.847 138.368,62.198 C138.678,62.548 138.999,62.792 139.329,62.931 C139.412,62.977 139.484,63.047 139.548,63.138 C139.649,63.314 139.590,63.402 139.370,63.402 L133.493,63.402 C133.282,63.402 133.212,63.328 133.286,63.181 C133.350,63.070 133.432,62.986 133.533,62.931 C133.854,62.792 134.163,62.548 134.460,62.198 C134.758,61.847 134.906,61.455 134.906,61.021 L134.906,49.143 L127.766,60.592 C127.427,61.136 127.403,61.616 127.697,62.032 C127.972,62.447 128.328,62.747 128.768,62.931 C128.851,62.977 128.928,63.047 129.002,63.138 C129.084,63.314 129.024,63.402 128.823,63.402 L122.931,63.402 C122.721,63.402 122.651,63.328 122.725,63.181 C122.780,63.079 122.862,62.996 122.972,62.931 C123.302,62.792 123.613,62.548 123.906,62.198 C124.200,61.847 124.345,61.455 124.345,61.021 L124.345,47.773 C124.345,47.339 124.200,46.928 123.906,46.541 C123.613,46.153 123.302,45.890 122.972,45.751 C122.780,45.660 122.693,45.530 122.712,45.364 C122.721,45.271 122.794,45.225 122.931,45.225 L128.823,45.225 C128.951,45.225 129.024,45.271 129.042,45.364 C129.061,45.530 128.969,45.660 128.768,45.751 C128.438,45.890 128.117,46.153 127.807,46.541 C127.495,46.928 127.340,47.339 127.340,47.773 L127.340,58.931 C127.340,58.986 127.379,59.041 127.456,59.097 C127.534,59.152 127.587,59.152 127.614,59.097 L134.481,48.063 C134.664,47.777 134.742,47.482 134.715,47.177 C134.687,46.910 134.581,46.651 134.399,46.402 C134.179,46.134 133.891,45.917 133.533,45.751 C133.322,45.660 133.236,45.530 133.273,45.364 C133.273,45.271 133.346,45.225 133.493,45.225 L139.370,45.225 C139.517,45.225 139.590,45.271 139.590,45.364 C139.599,45.530 139.512,45.660 139.329,45.751 C138.999,45.890 138.678,46.153 138.368,46.541 ZM119.971,62.170 C120.278,62.521 120.597,62.765 120.926,62.903 C121.017,62.950 121.091,63.020 121.146,63.111 C121.274,63.296 121.219,63.388 120.981,63.388 L115.089,63.388 C114.889,63.388 114.824,63.310 114.898,63.153 C114.943,63.033 115.025,62.950 115.144,62.903 C115.465,62.765 115.774,62.521 116.071,62.170 C116.369,61.819 116.518,61.427 116.518,60.993 L116.518,55.829 C115.858,55.913 115.204,56.011 114.554,56.128 C113.903,56.243 113.250,56.300 112.590,56.300 C111.143,56.300 109.962,56.185 109.047,55.954 C108.177,55.742 107.495,55.336 107.000,54.736 C106.506,54.136 106.305,53.509 106.396,52.853 L107.138,47.731 C107.193,47.306 107.101,46.901 106.863,46.513 C106.625,46.125 106.356,45.858 106.053,45.710 C105.870,45.627 105.796,45.503 105.833,45.336 C105.861,45.244 105.943,45.197 106.081,45.197 L111.958,45.197 C112.096,45.197 112.165,45.244 112.165,45.336 C112.165,45.493 112.055,45.617 111.835,45.710 C111.486,45.858 111.130,46.125 110.763,46.513 C110.397,46.901 110.187,47.306 110.132,47.731 C110.022,48.451 109.898,49.164 109.761,49.870 C109.623,50.575 109.541,51.285 109.513,51.995 C109.487,52.447 109.489,52.853 109.520,53.213 C109.553,53.573 109.687,53.891 109.926,54.168 C110.585,54.999 111.541,55.358 112.796,55.248 C113.409,55.193 114.025,55.142 114.643,55.096 C115.261,55.050 115.886,54.948 116.518,54.791 L116.518,47.731 C116.518,47.306 116.369,46.901 116.071,46.513 C115.774,46.125 115.465,45.858 115.144,45.710 C114.943,45.627 114.851,45.503 114.870,45.336 C114.878,45.244 114.953,45.197 115.089,45.197 L120.981,45.197 C121.109,45.197 121.183,45.244 121.201,45.336 C121.210,45.503 121.118,45.627 120.926,45.710 C120.597,45.858 120.278,46.125 119.971,46.513 C119.665,46.901 119.512,47.306 119.512,47.731 L119.512,60.993 C119.512,61.427 119.665,61.819 119.971,62.170 ZM103.883,66.808 C103.728,66.613 103.597,66.441 103.491,66.289 C103.386,66.136 103.260,65.967 103.114,65.783 C102.922,65.553 102.731,65.322 102.544,65.090 C102.356,64.860 102.148,64.652 101.919,64.468 C101.324,63.997 100.802,63.693 100.354,63.554 C100.107,63.489 99.836,63.444 99.543,63.415 L91.001,63.415 C90.058,63.415 89.422,63.462 89.092,63.554 C88.616,63.693 88.089,63.997 87.513,64.468 C87.275,64.652 87.064,64.860 86.881,65.090 C86.698,65.322 86.515,65.553 86.332,65.783 C86.176,65.967 86.044,66.136 85.934,66.289 C85.824,66.441 85.700,66.613 85.563,66.808 C85.425,66.937 85.306,66.978 85.206,66.932 C85.077,66.849 85.022,66.770 85.041,66.696 C85.096,66.254 85.192,65.845 85.329,65.471 C85.466,65.098 85.590,64.643 85.700,64.108 C85.819,63.508 85.874,63.038 85.865,62.696 C85.856,62.355 85.892,61.962 85.975,61.520 C85.993,61.381 86.080,61.312 86.236,61.312 C86.355,61.330 86.456,61.395 86.538,61.505 C86.602,61.588 86.698,61.750 86.826,61.990 C87.064,62.415 87.453,62.580 87.994,62.489 C88.277,62.442 88.497,62.283 88.653,62.010 C88.808,61.739 88.927,61.505 89.010,61.312 C89.312,60.537 89.559,59.618 89.751,58.557 C89.944,57.495 90.127,56.369 90.301,55.179 C90.447,54.146 90.603,53.084 90.768,51.995 C90.932,50.906 91.056,49.845 91.139,48.811 C91.202,47.943 91.042,47.270 90.658,46.789 C90.227,46.272 89.696,45.927 89.065,45.751 C88.845,45.705 88.758,45.576 88.804,45.364 C88.804,45.281 88.877,45.239 89.023,45.239 L101.617,45.239 C101.745,45.239 101.819,45.281 101.837,45.364 C101.846,45.539 101.755,45.668 101.562,45.751 C101.233,45.898 100.914,46.167 100.608,46.554 C100.301,46.942 100.148,47.348 100.148,47.773 L100.148,61.021 C100.148,61.898 100.624,62.387 101.576,62.489 C102.134,62.571 102.578,62.243 102.908,61.505 C102.944,61.395 103.041,61.330 103.197,61.312 C103.333,61.312 103.425,61.381 103.471,61.520 C103.553,61.962 103.586,62.355 103.568,62.696 C103.549,63.038 103.603,63.508 103.732,64.108 C103.842,64.643 103.966,65.098 104.102,65.471 C104.240,65.845 104.345,66.254 104.419,66.696 C104.427,66.779 104.368,66.858 104.240,66.932 C104.102,66.978 103.984,66.937 103.883,66.808 ZM97.154,48.285 C97.154,47.888 97.003,47.408 96.700,46.845 C96.398,46.282 95.812,46.001 94.943,46.001 C94.064,46.001 93.425,46.261 93.027,46.783 C92.628,47.305 92.374,47.861 92.265,48.451 C92.072,49.448 91.853,50.673 91.605,52.126 C91.358,53.580 91.125,55.013 90.905,56.425 C90.777,57.246 90.674,58.023 90.596,58.757 C90.518,59.491 90.511,60.149 90.575,60.731 C90.685,61.884 91.354,62.461 92.581,62.461 L95.341,62.461 C95.744,62.525 96.146,62.302 96.550,61.789 C96.952,61.277 97.154,60.772 97.154,60.274 L97.154,48.285 ZM75.730,63.776 C73.468,63.776 71.521,62.851 69.886,60.999 C68.252,59.149 67.476,56.924 67.558,54.320 C67.622,51.717 68.485,49.490 70.147,47.634 C71.809,45.779 73.775,44.851 76.046,44.851 C77.309,44.851 78.533,45.138 79.719,45.710 C80.905,46.282 81.877,47.094 82.638,48.146 C83.223,48.968 83.640,49.919 83.887,50.998 C84.135,52.078 84.245,53.185 84.217,54.320 C84.144,56.924 83.276,59.149 81.615,60.999 C79.953,62.851 77.991,63.776 75.730,63.776 ZM82.706,55.241 C82.514,53.391 81.704,51.717 80.276,50.222 C78.838,48.746 77.172,47.865 75.277,47.579 C73.381,47.293 71.838,47.708 70.648,48.825 C69.449,49.941 68.959,51.374 69.179,53.123 C69.399,54.872 70.227,56.489 71.665,57.976 C73.093,59.462 74.741,60.400 76.609,60.793 C78.476,61.185 80.010,60.818 81.209,59.692 C82.399,58.575 82.899,57.092 82.706,55.241 ZM64.661,59.574 C64.093,60.345 63.342,61.062 62.409,61.727 C60.321,63.213 57.826,63.956 54.924,63.956 C54.282,63.956 53.317,63.838 52.026,63.603 C50.735,63.368 49.288,62.521 47.686,61.062 C47.457,60.868 47.203,60.557 46.924,60.128 C46.644,59.698 46.422,59.231 46.258,58.723 C45.992,57.938 45.896,57.085 45.970,56.162 C46.015,55.396 46.230,54.694 46.615,54.057 C47.091,53.264 47.769,52.867 48.647,52.867 C49.316,52.867 49.890,53.130 50.371,53.656 C50.852,54.182 51.092,54.819 51.092,55.566 C51.092,56.379 50.817,57.053 50.268,57.588 C50.039,57.819 49.861,57.978 49.732,58.066 C49.604,58.153 49.480,58.367 49.362,58.709 C49.224,59.069 49.174,59.420 49.210,59.762 C49.247,60.278 49.455,60.724 49.835,61.097 C50.215,61.471 50.675,61.782 51.215,62.032 C51.792,62.290 52.426,62.491 53.118,62.633 C53.809,62.777 54.342,62.848 54.717,62.848 C57.116,62.839 58.888,62.081 60.033,60.578 C61.021,59.277 61.396,57.454 61.159,55.110 C60.865,52.397 59.533,50.509 57.162,49.448 C56.539,49.162 55.972,49.018 55.459,49.018 C55.093,49.027 54.715,49.070 54.326,49.143 C53.937,49.217 53.536,49.268 53.124,49.295 C52.886,49.314 52.767,49.079 52.767,48.589 C52.767,48.101 52.886,47.865 53.124,47.883 C53.545,47.911 53.948,47.943 54.333,47.980 C54.717,48.017 55.129,48.027 55.569,48.008 C55.917,48.008 56.310,48.004 56.750,47.994 C57.190,47.985 57.547,47.893 57.821,47.717 C58.535,47.246 59.085,46.609 59.469,45.807 C59.955,44.764 60.099,43.619 59.902,42.374 C59.705,41.128 59.304,40.033 58.700,39.093 C57.620,37.431 56.068,36.620 54.045,36.656 C52.799,36.684 51.536,37.150 50.254,38.054 C49.677,38.470 49.169,38.912 48.730,39.383 C48.291,39.854 47.796,40.343 47.246,40.851 C47.219,40.878 47.145,40.991 47.027,41.190 C46.908,41.388 46.798,41.488 46.697,41.488 C46.386,41.469 46.335,41.262 46.546,40.865 C47.013,40.033 47.402,39.249 47.713,38.511 C47.906,38.041 47.963,37.612 47.885,37.223 C47.807,36.836 47.842,36.338 47.988,35.728 C48.052,35.415 48.263,35.323 48.620,35.452 C48.876,35.562 49.144,35.695 49.423,35.847 C49.702,35.999 49.998,36.107 50.309,36.171 C50.547,36.227 50.909,36.199 51.394,36.089 C51.879,35.978 52.246,35.904 52.493,35.867 C52.987,35.802 53.456,35.708 53.901,35.583 C54.345,35.459 54.795,35.364 55.253,35.299 C57.038,35.069 58.842,35.382 60.664,36.241 C62.202,36.970 63.246,37.939 63.795,39.147 C64.802,41.391 64.681,43.367 63.431,45.079 C62.182,46.792 60.568,47.879 58.590,48.340 C59.533,48.378 60.508,48.576 61.516,48.936 C63.676,49.748 65.013,51.261 65.526,53.476 C65.764,54.501 65.823,55.552 65.704,56.633 C65.576,57.823 65.228,58.804 64.661,59.574 Z"/>
</svg>