<svg width="40" height="40" xmlns="http://www.w3.org/2000/svg">
 <defs>
  <linearGradient y2="0%" y1="100%" x2="0%" x1="0%" id="PSgrad_0">
   <stop stop-color="rgb(243,141,56)" offset="0%"/>
   <stop stop-color="rgb(237,193,19)" offset="100%"/>
  </linearGradient>
 </defs>
 <g>
  <title>background</title>
  <rect fill="none" id="canvas_background" height="42" width="42" y="-1" x="-1"/>
 </g>
 <g>
  <title>Layer 1</title>
  <path id="svg_1" d="m29.578533,26.04251c1.968,-2.688 3.146,-5.989 3.146,-9.569c0,-8.96 -7.29,-16.25 -16.25,-16.25c-8.96,0 -16.25,7.29 -16.25,16.25c0,8.96 7.29,16.25 16.25,16.25c3.579,0 6.881,-1.178 9.569,-3.146l10.646,10.646l3.535,-3.535l-10.646,-10.646l0,0zm-13.104,1.681c-6.204,0 -11.25,-5.046 -11.25,-11.25c0,-6.203 5.046,-11.25 11.25,-11.25c6.204,0 11.25,5.047 11.25,11.25c0,6.204 -5.046,11.25 -11.25,11.25l0,0z" fill="url(#PSgrad_0)" fill-rule="evenodd"/>
 </g>
</svg>