<svg 
 xmlns="http://www.w3.org/2000/svg"
 xmlns:xlink="http://www.w3.org/1999/xlink"
 width="6px" height="14px">
<path fill-rule="evenodd"  fill="rgb(174, 217, 146)"
 d="M5.648,11.269 C5.168,10.813 4.773,10.295 4.476,9.734 C4.334,9.457 4.028,9.277 3.737,9.277 L2.173,9.062 C1.708,7.592 1.717,6.368 2.206,4.919 L3.733,4.728 C4.063,4.730 4.365,4.562 4.523,4.285 C4.830,3.724 5.233,3.212 5.721,2.763 C6.065,2.446 6.069,1.926 5.730,1.604 L4.294,0.241 C3.955,-0.081 3.398,-0.085 3.054,0.232 C-0.965,3.933 -1.013,10.002 2.946,13.758 C3.285,14.080 3.841,14.084 4.186,13.767 L5.639,12.428 C5.984,12.111 5.988,11.591 5.648,11.269 Z"/>
</svg>