<svg 
 xmlns="http://www.w3.org/2000/svg"
 xmlns:xlink="http://www.w3.org/1999/xlink"
 width="32px" height="32px">
<path fill-rule="evenodd"  fill="rgb(115, 176, 81)"
 d="M31.062,17.941 L30.996,17.941 L30.996,21.021 C30.996,24.866 27.885,27.983 24.033,27.983 C23.443,27.983 22.963,28.464 22.963,29.054 C22.963,29.645 23.441,30.124 24.033,30.124 L25.037,30.124 C25.555,30.124 25.975,30.544 25.975,31.062 C25.975,31.580 25.555,32.000 25.037,32.000 L24.033,32.000 C22.420,32.000 21.088,30.697 21.088,29.054 C21.088,28.676 21.160,28.315 21.290,27.983 L10.710,27.983 C10.840,28.315 10.912,28.676 10.912,29.054 C10.912,30.697 9.579,32.000 7.967,32.000 L6.962,32.000 C6.445,32.000 6.025,31.580 6.025,31.062 C6.025,30.544 6.445,30.124 6.962,30.124 L7.967,30.124 C8.559,30.124 9.037,29.645 9.037,29.054 C9.037,28.464 8.557,27.983 7.967,27.983 C4.115,27.983 1.004,24.866 1.004,21.021 L1.004,17.941 L0.937,17.941 C0.420,17.941 -0.000,17.522 -0.000,17.004 L-0.000,12.987 C-0.000,12.470 0.420,12.050 0.937,12.050 L1.004,12.050 L1.004,6.963 C1.004,5.338 2.326,4.016 3.950,4.016 C5.574,4.016 6.896,5.338 6.896,6.963 L6.896,8.970 C6.896,9.488 6.476,9.908 5.958,9.908 C5.440,9.908 5.021,9.488 5.021,8.970 L5.021,6.963 C5.021,6.372 4.540,5.891 3.950,5.891 C3.360,5.891 2.879,6.372 2.879,6.963 L2.879,12.050 L31.062,12.050 C31.580,12.050 32.000,12.470 32.000,12.987 L32.000,17.004 C32.000,17.522 31.580,17.941 31.062,17.941 ZM16.067,13.925 L1.875,13.925 L1.875,16.066 L16.067,16.066 L16.067,13.925 ZM25.104,13.925 L17.942,13.925 L17.942,19.012 C17.942,19.602 18.422,20.083 19.012,20.083 L24.033,20.083 C24.624,20.083 25.104,19.602 25.104,19.012 L25.104,13.925 ZM24.033,21.958 L19.012,21.958 C17.370,21.958 16.067,20.625 16.067,19.012 L16.067,17.941 L2.879,17.941 L2.879,21.021 C2.879,23.835 5.157,26.108 7.967,26.108 L24.033,26.108 C26.843,26.108 29.121,23.835 29.121,21.021 L29.121,17.941 L26.979,17.941 L26.979,19.012 C26.979,20.655 25.646,21.958 24.033,21.958 ZM30.125,13.925 L26.979,13.925 L26.979,16.066 L30.125,16.066 L30.125,13.925 ZM29.054,5.891 C27.430,5.891 26.108,4.570 26.108,2.946 C26.108,1.321 27.430,-0.001 29.054,-0.001 C30.678,-0.001 32.000,1.321 32.000,2.946 C32.000,4.570 30.678,5.891 29.054,5.891 ZM29.054,1.875 C28.463,1.875 27.983,2.355 27.983,2.946 C27.983,3.536 28.464,4.016 29.054,4.016 C29.644,4.016 30.125,3.536 30.125,2.946 C30.125,2.355 29.644,1.875 29.054,1.875 ZM20.017,9.908 C18.392,9.908 17.071,8.586 17.071,6.963 C17.071,5.338 18.392,4.016 20.017,4.016 C21.641,4.016 22.963,5.338 22.963,6.963 C22.963,8.586 21.641,9.908 20.017,9.908 ZM20.017,5.891 C19.426,5.891 18.946,6.372 18.946,6.963 C18.946,7.553 19.426,8.033 20.017,8.033 C20.607,8.033 21.088,7.553 21.088,6.963 C21.088,6.372 20.607,5.891 20.017,5.891 ZM12.988,3.883 C12.470,3.883 12.050,3.463 12.050,2.946 C12.050,2.428 12.470,2.008 12.988,2.008 C13.505,2.008 13.925,2.428 13.925,2.946 C13.925,3.463 13.505,3.883 12.988,3.883 Z"/>
</svg>