<svg 
 xmlns="http://www.w3.org/2000/svg"
 xmlns:xlink="http://www.w3.org/1999/xlink"
 width="27px" height="27px">
<path fill-rule="evenodd"  fill="rgb(115, 176, 81)"
 d="M27.000,3.164 L27.000,14.238 C27.000,15.983 25.581,17.402 23.836,17.402 L22.043,17.402 L22.043,15.293 L23.836,15.293 C24.417,15.293 24.891,14.820 24.891,14.238 L24.891,8.596 L22.096,8.596 L22.096,9.650 L19.986,9.650 L19.986,5.431 L22.096,5.431 L22.096,6.486 L24.891,6.486 L24.891,3.164 C24.891,2.583 24.417,2.109 23.836,2.109 L15.293,2.109 L15.293,6.486 L16.348,6.486 L16.348,8.596 L12.129,8.596 L12.129,6.486 L13.184,6.486 L13.184,2.109 L10.283,2.109 L10.283,-0.000 L23.836,-0.000 C25.581,-0.000 27.000,1.419 27.000,3.164 L27.000,3.164 ZM15.293,12.234 L13.184,12.234 L13.184,23.836 C13.184,24.417 12.710,24.890 12.129,24.890 L10.389,24.890 L10.389,27.000 L12.129,27.000 C13.874,27.000 15.293,25.581 15.293,23.836 L15.293,17.402 L18.299,17.402 L18.299,15.293 L15.293,15.293 L15.293,12.234 ZM7.436,13.341 L2.109,13.341 L2.109,3.164 C2.109,2.583 2.583,2.109 3.164,2.109 L5.010,2.109 L5.010,-0.000 L3.164,-0.000 C1.419,-0.000 -0.000,1.419 -0.000,3.164 L-0.000,23.836 C-0.000,25.581 1.419,27.000 3.164,27.000 L5.062,27.000 L5.062,24.890 L3.164,24.890 C2.583,24.890 2.109,24.417 2.109,23.836 L2.109,15.451 L7.436,15.451 L7.436,16.453 L9.545,16.453 L9.545,12.234 L7.436,12.234 L7.436,13.341 Z"/>
</svg>