<svg 
 xmlns="http://www.w3.org/2000/svg"
 xmlns:xlink="http://www.w3.org/1999/xlink"
 width="36px" height="27px">
<path fill-rule="evenodd"  fill="rgb(115, 176, 81)"
 d="M35.116,13.978 C35.232,13.659 35.297,13.317 35.297,12.960 C35.297,11.907 34.741,10.976 33.897,10.428 L33.897,3.052 C33.897,1.369 32.477,-0.000 30.733,-0.000 L5.267,-0.000 C3.523,-0.000 2.103,1.369 2.103,3.052 L2.103,10.428 C1.259,10.976 0.703,11.907 0.703,12.960 C0.703,13.317 0.768,13.659 0.884,13.978 L-0.000,13.978 L-0.000,27.000 L2.109,27.000 L2.109,23.886 L33.891,23.886 L33.891,27.000 L36.000,27.000 L36.000,13.978 L35.116,13.978 ZM5.267,2.034 L30.733,2.034 C31.314,2.034 31.787,2.491 31.787,3.052 L31.787,9.908 L29.681,9.908 L29.681,8.891 C29.681,7.208 28.262,5.839 26.517,5.839 L20.109,5.839 C19.300,5.839 18.560,6.134 18.000,6.618 C17.440,6.134 16.700,5.839 15.891,5.839 L9.483,5.839 C7.738,5.839 6.319,7.208 6.319,8.891 L6.319,9.908 L4.212,9.908 L4.212,3.052 C4.212,2.491 4.686,2.034 5.267,2.034 L5.267,2.034 ZM16.945,9.908 L8.428,9.908 L8.428,8.891 C8.428,8.330 8.901,7.874 9.483,7.874 L15.891,7.874 C16.472,7.874 16.945,8.330 16.945,8.891 L16.945,9.908 ZM19.055,8.891 C19.055,8.330 19.528,7.874 20.109,7.874 L26.517,7.874 C27.099,7.874 27.572,8.330 27.572,8.891 L27.572,9.908 L19.055,9.908 L19.055,8.891 ZM2.812,12.960 C2.812,12.400 3.286,11.943 3.867,11.943 L32.133,11.943 C32.714,11.943 33.187,12.400 33.187,12.960 C33.187,13.521 32.714,13.978 32.133,13.978 L3.867,13.978 C3.286,13.978 2.812,13.521 2.812,12.960 L2.812,12.960 ZM2.109,16.012 L33.891,16.012 L33.891,21.851 L2.109,21.851 L2.109,16.012 Z"/>
</svg>