<svg 
 xmlns="http://www.w3.org/2000/svg"
 xmlns:xlink="http://www.w3.org/1999/xlink"
 width="16px" height="16px">
<path fill-rule="evenodd"  fill="rgb(231, 61, 67)"
 d="M7.995,0.006 C3.578,0.006 -0.003,3.588 -0.003,8.008 C-0.003,12.424 3.578,16.006 7.995,16.006 C12.414,16.006 15.996,12.424 15.996,8.008 C15.996,3.588 12.414,0.006 7.995,0.006 L7.995,0.006 ZM11.434,10.173 L10.160,11.447 C10.160,11.447 8.146,9.281 7.995,9.281 C7.847,9.281 5.830,11.447 5.830,11.447 L4.556,10.173 C4.556,10.173 6.721,8.187 6.721,8.010 C6.721,7.829 4.556,5.842 4.556,5.842 L5.830,4.569 C5.830,4.569 7.864,6.731 7.995,6.731 C8.126,6.731 10.160,4.569 10.160,4.569 L11.434,5.842 C11.434,5.842 9.269,7.859 9.269,8.010 C9.269,8.153 11.434,10.173 11.434,10.173 L11.434,10.173 Z"/>
</svg>