<svg 
 xmlns="http://www.w3.org/2000/svg"
 xmlns:xlink="http://www.w3.org/1999/xlink"
 width="11px" height="19px">
<path fill-rule="evenodd"  fill="rgb(208, 209, 159)"
 d="M5.807,18.993 C7.281,18.852 8.600,18.112 9.538,17.031 C10.477,15.949 11.035,14.526 10.990,13.020 L10.703,3.541 C10.637,1.390 8.871,-0.197 6.764,0.004 C5.744,0.101 4.796,0.599 4.097,1.405 C3.398,2.211 3.030,3.229 3.062,4.271 L3.325,12.970 C3.364,14.261 4.424,15.212 5.688,15.091 C6.952,14.971 7.949,13.822 7.910,12.532 L7.736,6.803 C7.723,6.372 7.370,6.056 6.948,6.096 C6.527,6.136 6.195,6.519 6.208,6.949 L6.382,12.677 C6.395,13.108 6.062,13.490 5.641,13.531 C5.220,13.571 4.866,13.254 4.853,12.823 L4.590,4.125 C4.571,3.500 4.792,2.889 5.211,2.405 C5.631,1.922 6.199,1.623 6.811,1.565 C8.075,1.444 9.135,2.396 9.174,3.687 L9.461,13.166 C9.526,15.318 7.866,17.231 5.759,17.433 C4.739,17.530 3.767,17.216 3.023,16.548 C2.279,15.880 1.852,14.938 1.821,13.896 L1.534,4.417 C1.520,3.986 1.168,3.669 0.746,3.710 C0.324,3.750 -0.008,4.132 0.006,4.563 L0.293,14.042 C0.337,15.501 0.935,16.819 1.976,17.755 C3.018,18.690 4.378,19.130 5.807,18.993 L5.807,18.993 Z"/>
</svg>