<svg 
 xmlns="http://www.w3.org/2000/svg"
 xmlns:xlink="http://www.w3.org/1999/xlink"
 width="24px" height="24px">
<path fill-rule="evenodd"  fill="rgb(249, 198, 155)"
 d="M12.000,23.999 C5.383,23.999 -0.000,18.616 -0.000,12.000 C-0.000,5.382 5.383,-0.001 12.000,-0.001 C18.617,-0.001 24.000,5.382 24.000,12.000 C24.000,18.616 18.617,23.999 12.000,23.999 ZM12.000,2.437 C6.727,2.437 2.437,6.727 2.437,12.000 C2.437,17.272 6.727,21.562 12.000,21.562 C17.273,21.562 21.563,17.272 21.563,12.000 C21.563,6.727 17.273,2.437 12.000,2.437 ZM12.000,18.902 C11.327,18.902 10.781,18.356 10.781,17.683 C10.781,17.011 11.327,16.465 12.000,16.465 C12.673,16.465 13.218,17.011 13.218,17.683 C13.218,18.356 12.673,18.902 12.000,18.902 ZM12.000,13.865 C11.327,13.865 10.781,13.319 10.781,12.647 L10.781,6.229 C10.781,5.556 11.327,5.010 12.000,5.010 C12.673,5.010 13.218,5.556 13.218,6.229 L13.218,12.647 C13.218,13.319 12.673,13.865 12.000,13.865 Z"/>
</svg>