<svg 
 xmlns="http://www.w3.org/2000/svg"
 xmlns:xlink="http://www.w3.org/1999/xlink"
 width="24px" height="28px">
<path fill-rule="evenodd"  fill="rgb(255, 255, 255)"
 d="M23.581,25.405 C23.429,26.019 23.117,26.535 22.641,26.952 C22.165,27.369 21.615,27.609 20.989,27.670 C19.002,27.890 16.005,27.999 12.000,27.999 C7.993,27.999 4.997,27.890 3.010,27.670 C2.383,27.609 1.829,27.369 1.348,26.952 C0.868,26.535 0.558,26.019 0.418,25.405 C0.137,24.239 -0.004,22.416 -0.004,19.937 C-0.004,17.499 0.137,15.676 0.418,14.468 C0.569,13.854 0.881,13.338 1.357,12.921 C1.832,12.505 2.388,12.260 3.025,12.187 C5.002,11.979 7.992,11.874 11.999,11.874 C16.006,11.874 19.002,11.979 20.989,12.187 C21.615,12.260 22.169,12.505 22.650,12.921 C23.130,13.338 23.441,13.853 23.581,14.468 C23.861,15.635 24.002,17.458 24.002,19.937 C24.002,22.374 23.861,24.197 23.581,25.405 ZM6.849,14.578 L1.795,14.578 L1.795,16.046 L3.496,16.046 L3.496,24.936 L5.115,24.936 L5.115,16.046 L6.849,16.046 L6.849,14.578 ZM11.222,17.219 L9.780,17.219 L9.780,23.124 C9.456,23.562 9.148,23.781 8.857,23.781 C8.662,23.781 8.549,23.671 8.517,23.452 C8.506,23.421 8.500,23.238 8.500,22.905 L8.500,17.219 L7.059,17.219 L7.059,23.327 C7.059,23.838 7.102,24.218 7.188,24.468 C7.318,24.853 7.631,25.046 8.128,25.046 C8.646,25.046 9.197,24.728 9.780,24.092 L9.780,24.936 L11.222,24.936 L11.222,17.219 ZM16.729,19.546 C16.729,18.786 16.681,18.271 16.583,17.999 C16.400,17.417 16.017,17.125 15.433,17.125 C14.893,17.125 14.392,17.406 13.927,17.968 L13.927,14.578 L12.486,14.578 L12.486,24.937 L13.927,24.937 L13.927,24.187 C14.413,24.759 14.915,25.046 15.433,25.046 C16.017,25.046 16.400,24.759 16.583,24.187 C16.681,23.905 16.729,23.384 16.729,22.624 L16.729,19.546 ZM22.204,22.265 L20.730,22.265 C20.730,22.795 20.719,23.114 20.698,23.218 C20.622,23.593 20.405,23.781 20.049,23.781 C19.553,23.781 19.304,23.421 19.304,22.702 L19.304,21.343 L22.204,21.343 L22.204,19.734 C22.204,18.911 22.058,18.306 21.766,17.921 C21.346,17.390 20.773,17.125 20.049,17.125 C19.315,17.125 18.738,17.390 18.316,17.921 C18.013,18.306 17.863,18.911 17.863,19.734 L17.863,22.437 C17.863,23.260 18.019,23.864 18.332,24.249 C18.753,24.780 19.336,25.046 20.082,25.046 C20.859,25.046 21.442,24.769 21.831,24.218 C22.026,23.937 22.139,23.655 22.171,23.374 C22.192,23.280 22.204,22.978 22.204,22.468 L22.204,22.265 ZM19.304,19.452 C19.304,18.744 19.547,18.390 20.034,18.390 C20.519,18.390 20.762,18.744 20.762,19.452 L20.762,20.171 L19.304,20.171 L19.304,19.452 ZM14.655,23.781 C14.407,23.781 14.164,23.666 13.927,23.437 L13.927,18.734 C14.164,18.505 14.407,18.390 14.655,18.390 C15.077,18.390 15.287,18.739 15.287,19.437 L15.287,22.734 C15.287,23.431 15.076,23.781 14.655,23.781 ZM17.781,9.609 C17.210,10.254 16.653,10.577 16.113,10.577 C15.616,10.577 15.298,10.385 15.158,9.999 C15.071,9.750 15.028,9.359 15.028,8.828 L15.028,2.672 L16.502,2.672 L16.502,8.406 C16.502,8.750 16.507,8.932 16.518,8.953 C16.550,9.182 16.664,9.296 16.858,9.296 C17.150,9.296 17.458,9.072 17.781,8.624 L17.781,2.672 L19.256,2.672 L19.256,10.468 L17.781,10.468 L17.781,9.609 ZM11.659,10.577 C10.936,10.577 10.369,10.312 9.958,9.780 C9.656,9.385 9.505,8.770 9.505,7.937 L9.505,5.202 C9.505,4.370 9.656,3.760 9.958,3.375 C10.369,2.844 10.936,2.578 11.659,2.578 C12.404,2.578 12.976,2.844 13.376,3.375 C13.678,3.760 13.829,4.370 13.829,5.202 L13.829,7.937 C13.829,8.781 13.678,9.395 13.376,9.780 C12.976,10.312 12.404,10.577 11.659,10.577 ZM12.356,4.922 C12.356,4.202 12.124,3.844 11.659,3.844 C11.195,3.844 10.963,4.202 10.963,4.922 L10.963,8.203 C10.963,8.932 11.195,9.296 11.659,9.296 C12.124,9.296 12.356,8.932 12.356,8.203 L12.356,4.922 ZM7.529,10.469 L5.909,10.469 L5.909,6.234 C5.758,5.463 5.429,4.359 4.921,2.921 C4.522,1.848 4.171,0.875 3.869,-0.000 L5.585,-0.000 L6.735,4.109 L7.836,-0.000 L9.488,-0.000 L7.529,6.234 L7.529,10.469 Z"/>
</svg>